<?xml version="1.0" encoding="utf-8"?>
<!-- Generator: Adobe Illustrator 22.1.0, SVG Export Plug-In . SVG Version: 6.00 Build 0)  -->
<svg version="1.1" id="Capa_1" xmlns="http://www.w3.org/2000/svg" xmlns:xlink="http://www.w3.org/1999/xlink" x="0px" y="0px"
	 viewBox="0 0 631.3 143.3" style="enable-background:new 0 0 631.3 143.3;" xml:space="preserve">
<style type="text/css">
	.st0{fill:#A3C64B;}
	.st1{fill:#58595B;}
</style>
<g id="B_x5F_04">
	<g>
		<path class="st0" d="M80,6.4l41.9,37.1c6.9,6.2,11.3,13,10.9,22.4l-0.1,64c0,7.5-4.8,13.4-12.5,13.4c-34.1-0.1-68.2-0.2-102.3-0.2
			c-7.7,0-12.5-6-12.5-13.4l0.1-64c-0.3-9.4,4.1-16.2,11-22.4l42-37C64.6,0.4,73.9,0.4,80,6.4L80,6.4z M66.2,62.9H47.8v18.4h18.4
			V62.9L66.2,62.9z M66.1,86.3H47.7v18.4h18.4V86.3L66.1,86.3z M72.1,62.9v18.4h18.4V62.9H72.1L72.1,62.9z M72,86.3v18.4h18.4V86.3
			H72z"/>
	</g>
	<g>
		<g>
			<path class="st0" d="M196.5,57.9l-6.3,6.3c-2.5-2.5-4.9-3.8-7-3.8c-1.1,0-2,0.2-2.7,0.7c-0.6,0.5-1,1.1-1,1.8
				c0,0.5,0.2,1,0.6,1.5s1.4,1.1,3,1.9l3.7,1.9c3.9,1.9,6.6,3.9,8.1,5.9s2.2,4.4,2.2,7.1c0,3.6-1.3,6.6-4,9s-6.2,3.6-10.7,3.6
				c-5.9,0-10.7-2.3-14.2-6.9l6.3-6.8c1.2,1.4,2.6,2.5,4.2,3.4s3,1.3,4.3,1.3s2.4-0.3,3.3-1c0.8-0.7,1.2-1.4,1.2-2.2
				c0-1.6-1.5-3.1-4.4-4.6l-3.4-1.7c-6.6-3.3-9.9-7.4-9.9-12.4c0-3.2,1.2-5.9,3.7-8.2s5.6-3.4,9.5-3.4c2.6,0,5.1,0.6,7.4,1.7
				C193,54.1,194.9,55.7,196.5,57.9L196.5,57.9z M207.4,52.1h10.2v4.7c1.7-1.9,3.7-3.4,5.8-4.3c2.1-1,4.5-1.4,7-1.4s4.8,0.6,6.9,1.9
				c2.1,1.2,3.7,3.1,4.9,5.5c1.6-2.4,3.6-4.2,6-5.5c2.4-1.2,4.9-1.9,7.7-1.9c2.9,0,5.4,0.7,7.6,2s3.8,3.1,4.7,5.3
				c1,2.2,1.4,5.7,1.4,10.6v23.8h-10.2V72.3c0-4.6-0.6-7.7-1.7-9.3c-1.2-1.6-2.9-2.4-5.2-2.4c-1.8,0-3.4,0.5-4.7,1.5
				c-1.4,1-2.4,2.4-3.1,4.1c-0.7,1.7-1,4.6-1,8.4v18.2h-10.2V73.2c0-3.6-0.3-6.2-0.8-7.9c-0.5-1.6-1.4-2.8-2.4-3.6
				c-1.1-0.8-2.4-1.2-3.9-1.2c-1.7,0-3.3,0.5-4.7,1.5c-1.4,1-2.4,2.4-3.1,4.2s-1,4.7-1,8.6v18h-10.2V52.1L207.4,52.1z M311.6,52.1
				h10.2v40.7h-10.2v-4.3c-2,1.9-4,3.2-6,4.1c-2,0.8-4.2,1.2-6.5,1.2c-5.3,0-9.8-2-13.6-6.1c-3.8-4.1-5.7-9.1-5.7-15.1
				c0-6.3,1.9-11.4,5.6-15.4s8.2-6,13.5-6c2.4,0,4.7,0.5,6.9,1.4c2.1,0.9,4.1,2.3,5.9,4.1L311.6,52.1L311.6,52.1z M300.8,60.5
				c-3.2,0-5.8,1.1-7.9,3.3s-3.1,5.1-3.1,8.6s1.1,6.4,3.2,8.7s4.7,3.4,7.9,3.4c3.2,0,5.9-1.1,8-3.3s3.2-5.1,3.2-8.7
				c0-3.5-1.1-6.4-3.2-8.6C306.7,61.6,304.1,60.5,300.8,60.5L300.8,60.5z M331.8,52.1h8.8v5.2c0.9-2,2.2-3.5,3.7-4.6
				c1.6-1,3.3-1.6,5.1-1.6c1.3,0,2.7,0.3,4.1,1l-3.2,8.8c-1.2-0.6-2.2-0.9-2.9-0.9c-1.6,0-2.9,1-4,2.9s-1.6,5.7-1.6,11.4v2v16.5
				h-10.2V52.1H331.8z M362,37.2h10.2v15h6V61h-6v31.8H362V61h-5.2v-8.8h5.2V37.2z"/>
			<path class="st1" d="M389.2,43.2h4.6v50h-4.6V43.2L389.2,43.2z M433.9,81.2l3.9,2.1c-1.3,2.5-2.8,4.5-4.5,6.1
				c-1.7,1.5-3.6,2.7-5.7,3.5c-2.1,0.8-4.5,1.2-7.2,1.2c-5.9,0-10.5-1.9-13.8-5.8c-3.3-3.8-5-8.2-5-13c0-4.6,1.4-8.6,4.2-12.2
				c3.6-4.5,8.4-6.8,14.3-6.8c6.2,0,11.1,2.3,14.8,7c2.6,3.3,4,7.4,4,12.3h-32.4c0.1,4.2,1.4,7.6,4,10.3s5.8,4,9.6,4
				c1.8,0,3.6-0.3,5.4-1c1.7-0.6,3.2-1.5,4.5-2.5C431.2,85.2,432.5,83.6,433.9,81.2L433.9,81.2z M434,71.5c-0.6-2.5-1.5-4.5-2.7-5.9
				c-1.2-1.5-2.8-2.7-4.7-3.6c-2-0.9-4-1.4-6.2-1.4c-3.6,0-6.6,1.1-9.2,3.4c-1.9,1.7-3.3,4.1-4.2,7.5H434L434,71.5z M447.6,57.1h4.6
				v6.5c1.9-2.5,3.9-4.3,6.2-5.5s4.7-1.8,7.4-1.8s5.1,0.7,7.2,2c2.1,1.4,3.6,3.2,4.6,5.5s1.5,5.9,1.5,10.8v18.5h-4.6V75.9
				c0-4.1-0.2-6.9-0.5-8.3c-0.6-2.4-1.6-4.2-3.1-5.4s-3.5-1.8-6-1.8c-2.8,0-5.3,0.9-7.6,2.8c-2.2,1.8-3.7,4.1-4.4,6.9
				c-0.4,1.8-0.7,5.1-0.7,9.8v13.2h-4.6L447.6,57.1L447.6,57.1z M525.1,43.2v50h-4.6V87c-1.9,2.4-4.1,4.1-6.5,5.3
				c-2.4,1.2-5.1,1.8-7.9,1.8c-5.1,0-9.5-1.8-13.1-5.5s-5.4-8.2-5.4-13.5c0-5.2,1.8-9.6,5.5-13.3c3.6-3.7,8-5.5,13.1-5.5
				c3,0,5.6,0.6,8,1.9c2.4,1.3,4.5,3.1,6.3,5.7V43.3L525.1,43.2L525.1,43.2z M506.5,60.7c-2.6,0-5,0.6-7.1,1.9
				c-2.2,1.3-3.9,3-5.2,5.3s-1.9,4.7-1.9,7.3c0,2.5,0.6,4.9,1.9,7.3c1.3,2.3,3,4.1,5.2,5.4c2.2,1.3,4.6,1.9,7.1,1.9s4.9-0.6,7.2-1.9
				c2.3-1.3,4-3,5.2-5.2s1.8-4.6,1.8-7.4c0-4.2-1.4-7.6-4.1-10.4C513.9,62.1,510.5,60.7,506.5,60.7L506.5,60.7z M537.2,42.3
				c1.1,0,1.9,0.4,2.7,1.1c0.7,0.7,1.1,1.7,1.1,2.7s-0.4,1.9-1.1,2.7c-0.7,0.8-1.6,1.1-2.7,1.1c-1,0-1.9-0.4-2.7-1.1
				c-0.7-0.7-1.1-1.7-1.1-2.7c0-1.1,0.4-2,1.1-2.7C535.3,42.7,536.2,42.3,537.2,42.3L537.2,42.3z M534.9,57.1h4.6v36.1h-4.6V57.1
				L534.9,57.1z M549.2,57.1h4.6v6.5c1.9-2.5,3.9-4.3,6.2-5.5s4.7-1.8,7.4-1.8s5.1,0.7,7.2,2c2.1,1.4,3.6,3.2,4.6,5.5
				s1.5,5.9,1.5,10.8v18.5h-4.6V75.9c0-4.1-0.2-6.9-0.5-8.3c-0.6-2.4-1.6-4.2-3.1-5.4s-3.5-1.8-6-1.8c-2.8,0-5.3,0.9-7.6,2.8
				c-2.2,1.8-3.7,4.1-4.4,6.9c-0.4,1.8-0.7,5.1-0.7,9.8v13.2h-4.6L549.2,57.1L549.2,57.1z M621.8,57.1h4.6v28.7
				c0,5.1-0.4,8.8-1.3,11.1c-1.2,3.3-3.3,5.9-6.3,7.6c-3,1.8-6.6,2.7-10.8,2.7c-3.1,0-5.9-0.4-8.3-1.3c-2.5-0.9-4.5-2.1-6-3.5
				c-1.5-1.5-3-3.6-4.3-6.5h5c1.4,2.4,3.1,4.2,5.3,5.3c2.2,1.2,4.9,1.7,8.1,1.7c3.2,0,5.8-0.6,8-1.8s3.7-2.6,4.7-4.4
				c0.9-1.8,1.4-4.6,1.4-8.6v-1.9c-1.7,2.2-3.9,3.9-6.4,5.1c-2.5,1.2-5.2,1.8-8,1.8c-3.3,0-6.4-0.8-9.4-2.5
				c-2.9-1.6-5.2-3.9-6.8-6.6c-1.6-2.8-2.4-5.8-2.4-9.2c0-3.3,0.8-6.4,2.5-9.3c1.7-2.9,4-5.2,6.9-6.8c2.9-1.7,6-2.5,9.3-2.5
				c2.7,0,5.2,0.6,7.6,1.7c2.3,1.1,4.6,2.9,6.7,5.5L621.8,57.1L621.8,57.1z M608.1,60.7c-2.6,0-5.1,0.6-7.3,1.9
				c-2.3,1.3-4,3-5.3,5.3c-1.3,2.2-1.9,4.7-1.9,7.3c0,4,1.3,7.2,4,9.8c2.6,2.6,6.1,3.9,10.3,3.9c4.3,0,7.7-1.3,10.3-3.8
				c2.6-2.6,3.9-5.9,3.9-10.1c0-2.7-0.6-5.1-1.8-7.3c-1.2-2.1-2.9-3.8-5.1-5.1C613,61.3,610.6,60.7,608.1,60.7z"/>
		</g>
		<g>
			<path class="st1" d="M173.5,120.5h5.5v-2.3h-5.5V113h-2.6v5.2h-2.4v2.3h2.4v10.4c0,0.9,0.1,1.6,0.4,2.2c0.2,0.6,0.6,1.1,1,1.5
				s1,0.7,1.6,0.9s1.2,0.3,1.9,0.3c0.6,0,1.2-0.1,1.7-0.2c0.5-0.1,1-0.3,1.4-0.6v-2.2c-0.4,0.2-0.9,0.4-1.3,0.5s-0.8,0.1-1.3,0.1
				c-0.9,0-1.6-0.2-2.1-0.6c-0.5-0.4-0.8-1.2-0.8-2.2L173.5,120.5L173.5,120.5z M195.7,128.1c0,0.8-0.1,1.5-0.4,2.2
				s-0.6,1.2-1.1,1.7s-1,0.8-1.6,1.1s-1.3,0.4-2.1,0.4c-1.5,0-2.7-0.5-3.5-1.4s-1.2-2.2-1.2-3.8v-10.1h-2.6v10.7c0,1,0.2,2,0.5,2.8
				s0.7,1.6,1.3,2.2c0.6,0.6,1.3,1.1,2.1,1.4c0.8,0.3,1.7,0.5,2.8,0.5c1.5,0,2.7-0.3,3.6-1s1.7-1.5,2.3-2.4v3h2.5v-17.3h-2.5
				L195.7,128.1L195.7,128.1z M228.9,132.6l-1.6-1.5c-0.7,0.7-1.5,1.3-2.3,1.8c-0.9,0.5-1.8,0.7-3,0.7c-0.9,0-1.8-0.2-2.5-0.5
				c-0.8-0.3-1.4-0.8-2-1.4c-0.6-0.6-1-1.3-1.3-2.1s-0.5-1.7-0.5-2.6c0-0.9,0.2-1.8,0.5-2.6s0.7-1.5,1.3-2.1c0.6-0.6,1.2-1.1,2-1.4
				c0.8-0.3,1.6-0.5,2.4-0.5c1.2,0,2.2,0.3,3,0.8s1.6,1.1,2.3,1.8l1.7-1.8c-0.4-0.4-0.8-0.8-1.3-1.2s-1-0.7-1.5-1
				c-0.6-0.3-1.2-0.5-1.8-0.7c-0.7-0.2-1.4-0.2-2.2-0.2c-1.3,0-2.4,0.2-3.5,0.7s-2,1.1-2.8,2c-0.8,0.8-1.4,1.8-1.9,2.9
				c-0.4,1.1-0.7,2.3-0.7,3.5s0.2,2.4,0.7,3.5c0.4,1.1,1.1,2,1.9,2.9c0.8,0.8,1.7,1.5,2.8,1.9c1.1,0.5,2.3,0.7,3.5,0.7
				c1.6,0,3-0.3,4.1-0.9C227,134.3,228,133.5,228.9,132.6L228.9,132.6z M239.4,120.3c1.6,0,2.9,0.4,3.8,1.2s1.4,2,1.4,3.5v0.6
				c-0.8-0.2-1.6-0.4-2.4-0.5s-1.8-0.2-2.9-0.2s-2.1,0.1-3,0.4c-0.9,0.2-1.7,0.6-2.3,1.1c-0.7,0.5-1.2,1.1-1.5,1.8
				c-0.4,0.7-0.5,1.5-0.5,2.4s0.2,1.7,0.6,2.4s0.9,1.2,1.5,1.7s1.3,0.8,2.1,1c0.8,0.2,1.6,0.3,2.4,0.3c1.5,0,2.8-0.3,3.8-0.9
				c1-0.6,1.8-1.3,2.4-2.1v2.6h2.5V125c0-2.3-0.6-4-1.9-5.2s-3.1-1.8-5.4-1.8c-1.3,0-2.4,0.1-3.4,0.4c-1,0.3-1.9,0.6-2.9,1.1
				l0.8,2.1c0.8-0.4,1.6-0.7,2.5-0.9C237.4,120.4,238.4,120.3,239.4,120.3L239.4,120.3z M239.5,126.8c1.1,0,2,0.1,2.8,0.2
				c0.8,0.2,1.6,0.3,2.2,0.5v1.7c0,0.7-0.2,1.3-0.5,1.9c-0.3,0.6-0.7,1.1-1.2,1.5s-1.1,0.7-1.8,1c-0.7,0.2-1.4,0.4-2.2,0.4
				c-0.6,0-1.1-0.1-1.6-0.2c-0.5-0.2-1-0.4-1.4-0.7s-0.7-0.7-0.9-1.1c-0.2-0.4-0.4-0.9-0.4-1.5c0-1.1,0.4-2,1.3-2.6
				C236.6,127.1,237.9,126.8,239.5,126.8L239.5,126.8z M264.3,130.7L264.3,130.7c0-0.8-0.2-1.5-0.5-2s-0.8-1-1.3-1.4
				s-1.1-0.7-1.8-0.9c-0.7-0.2-1.3-0.5-2-0.7c-0.6-0.2-1.1-0.4-1.7-0.5c-0.5-0.2-1-0.4-1.4-0.6c-0.4-0.2-0.7-0.5-1-0.8
				c-0.2-0.3-0.4-0.7-0.4-1.1v-0.1c0-0.7,0.3-1.3,0.9-1.8s1.4-0.7,2.4-0.7c0.8,0,1.7,0.1,2.6,0.5c0.9,0.3,1.7,0.7,2.5,1.2l1.2-1.9
				c-0.9-0.6-1.9-1-3-1.4c-1.1-0.3-2.2-0.5-3.2-0.5c-0.8,0-1.6,0.1-2.4,0.4c-0.7,0.2-1.3,0.6-1.9,1c-0.5,0.4-0.9,1-1.2,1.6
				c-0.3,0.6-0.4,1.3-0.4,2v0.1c0,0.8,0.2,1.5,0.5,2s0.8,1,1.3,1.3c0.5,0.4,1.2,0.7,1.8,0.9c0.7,0.2,1.4,0.5,2,0.7s1.1,0.3,1.6,0.5
				s1,0.4,1.4,0.6c0.4,0.2,0.7,0.5,1,0.8c0.2,0.3,0.4,0.7,0.4,1.1v0.1c0,0.8-0.3,1.5-1,2s-1.5,0.7-2.6,0.7c-1,0-2-0.2-3.1-0.6
				c-1-0.4-2-0.9-2.9-1.6l-1.3,1.8c1,0.8,2.1,1.4,3.4,1.9s2.5,0.7,3.8,0.7c0.9,0,1.7-0.1,2.4-0.4c0.7-0.2,1.4-0.6,1.9-1s1-1,1.3-1.6
				C264.2,132.2,264.3,131.5,264.3,130.7L264.3,130.7z M275.3,120.3c1.6,0,2.9,0.4,3.8,1.2s1.4,2,1.4,3.5v0.6
				c-0.8-0.2-1.6-0.4-2.4-0.5s-1.8-0.2-2.9-0.2s-2.1,0.1-3,0.4c-0.9,0.2-1.7,0.6-2.3,1.1c-0.7,0.5-1.2,1.1-1.5,1.8
				c-0.4,0.7-0.5,1.5-0.5,2.4s0.2,1.7,0.6,2.4s0.9,1.2,1.5,1.7s1.3,0.8,2.1,1c0.8,0.2,1.6,0.3,2.4,0.3c1.5,0,2.8-0.3,3.8-0.9
				c1-0.6,1.8-1.3,2.4-2.1v2.6h2.5V125c0-2.3-0.6-4-1.9-5.2s-3.1-1.8-5.4-1.8c-1.3,0-2.4,0.1-3.4,0.4c-1,0.3-1.9,0.6-2.9,1.1
				l0.8,2.1c0.8-0.4,1.6-0.7,2.5-0.9C273.4,120.4,274.3,120.3,275.3,120.3L275.3,120.3z M275.5,126.8c1.1,0,2,0.1,2.8,0.2
				c0.8,0.2,1.6,0.3,2.2,0.5v1.7c0,0.7-0.1,1.3-0.5,1.9c-0.3,0.6-0.7,1.1-1.2,1.5s-1.1,0.7-1.8,1c-0.7,0.2-1.4,0.4-2.2,0.4
				c-0.6,0-1.1-0.1-1.6-0.2c-0.5-0.2-1-0.4-1.4-0.7s-0.7-0.7-0.9-1.1c-0.2-0.4-0.4-0.9-0.4-1.5c0-1.1,0.4-2,1.3-2.6
				C272.6,127.1,273.8,126.8,275.5,126.8L275.5,126.8z M301.5,114.5v-2.8h-3v2.8H301.5L301.5,114.5z M301.3,135.5v-17.3h-2.6v17.3
				H301.3L301.3,135.5z M323.7,135.5v-24.4h-2.6v10.4c-0.3-0.5-0.7-1-1.2-1.4c-0.4-0.4-0.9-0.8-1.5-1.2c-0.5-0.3-1.1-0.6-1.8-0.8
				c-0.7-0.2-1.4-0.3-2.2-0.3c-1,0-2.1,0.2-3,0.6c-1,0.4-1.9,1-2.6,1.8c-0.8,0.8-1.4,1.7-1.9,2.8s-0.7,2.4-0.7,3.8
				c0,1.4,0.2,2.7,0.7,3.8s1.1,2.1,1.9,2.8c0.8,0.8,1.7,1.4,2.6,1.8c1,0.4,2,0.6,3,0.6c0.8,0,1.5-0.1,2.2-0.3s1.3-0.5,1.8-0.8
				c0.5-0.4,1-0.8,1.5-1.2c0.4-0.5,0.8-1,1.2-1.5v3.5L323.7,135.5L323.7,135.5z M321.2,126.9c0,1-0.2,1.9-0.5,2.7s-0.8,1.5-1.4,2.1
				s-1.3,1-2,1.3s-1.5,0.5-2.3,0.5s-1.6-0.2-2.3-0.5c-0.7-0.3-1.4-0.8-1.9-1.3c-0.6-0.6-1-1.3-1.3-2.1s-0.5-1.7-0.5-2.8
				c0-1,0.2-2,0.5-2.8s0.8-1.5,1.3-2.1s1.2-1,1.9-1.3c0.7-0.3,1.5-0.5,2.4-0.5c0.8,0,1.6,0.2,2.3,0.5c0.7,0.3,1.4,0.8,2,1.3
				c0.6,0.6,1.1,1.3,1.4,2.1C321,125,321.2,125.9,321.2,126.9L321.2,126.9z M331,127.8h13.7c0-0.2,0-0.3,0-0.4c0-0.1,0-0.3,0-0.4
				c0-1.3-0.2-2.5-0.5-3.6c-0.4-1.1-0.9-2.1-1.6-2.9c-0.7-0.8-1.5-1.5-2.5-2s-2.1-0.7-3.4-0.7c-1.2,0-2.3,0.2-3.3,0.7
				s-1.9,1.1-2.6,1.9c-0.7,0.8-1.3,1.8-1.7,2.9c-0.4,1.1-0.6,2.3-0.6,3.5c0,1.3,0.2,2.6,0.7,3.7c0.5,1.1,1.1,2.1,1.9,2.9
				c0.8,0.8,1.7,1.4,2.7,1.8c1,0.4,2.2,0.7,3.3,0.7c1.6,0,3-0.3,4.1-0.9c1.1-0.6,2.1-1.4,3-2.4l-1.6-1.4c-0.7,0.7-1.5,1.3-2.4,1.8
				c-0.9,0.4-1.9,0.7-3.1,0.7c-0.8,0-1.5-0.1-2.2-0.4c-0.7-0.3-1.3-0.6-1.9-1.1s-1-1.1-1.4-1.8C331.3,129.6,331.1,128.8,331,127.8
				L331,127.8z M331,125.9c0.1-0.8,0.3-1.6,0.6-2.3c0.3-0.7,0.7-1.3,1.2-1.9c0.5-0.5,1.1-0.9,1.7-1.2s1.3-0.5,2.1-0.5
				c0.9,0,1.6,0.2,2.3,0.5c0.7,0.3,1.2,0.8,1.7,1.3s0.8,1.2,1.1,1.9c0.2,0.7,0.4,1.5,0.5,2.2H331L331,125.9z M355.4,120.3
				c1.6,0,2.9,0.4,3.8,1.2s1.4,2,1.4,3.5v0.6c-0.8-0.2-1.6-0.4-2.4-0.5s-1.8-0.2-2.9-0.2s-2.1,0.1-3,0.4c-0.9,0.2-1.7,0.6-2.3,1.1
				c-0.7,0.5-1.2,1.1-1.5,1.8c-0.4,0.7-0.5,1.5-0.5,2.4s0.2,1.7,0.6,2.4s0.9,1.2,1.5,1.7s1.3,0.8,2.1,1c0.8,0.2,1.6,0.3,2.4,0.3
				c1.5,0,2.8-0.3,3.8-0.9c1-0.6,1.8-1.3,2.4-2.1v2.6h2.5V125c0-2.3-0.6-4-1.9-5.2s-3.1-1.8-5.4-1.8c-1.3,0-2.4,0.1-3.4,0.4
				c-1,0.3-1.9,0.6-2.9,1.1l0.8,2.1c0.8-0.4,1.6-0.7,2.5-0.9C353.5,120.4,354.4,120.3,355.4,120.3L355.4,120.3z M355.5,126.8
				c1.1,0,2,0.1,2.8,0.2c0.8,0.2,1.6,0.3,2.2,0.5v1.7c0,0.7-0.2,1.3-0.5,1.9c-0.3,0.6-0.7,1.1-1.2,1.5s-1.1,0.7-1.8,1
				c-0.7,0.2-1.4,0.4-2.2,0.4c-0.6,0-1.1-0.1-1.6-0.2c-0.5-0.2-1-0.4-1.4-0.7s-0.7-0.7-0.9-1.1c-0.2-0.4-0.4-0.9-0.4-1.5
				c0-1.1,0.4-2,1.3-2.6C352.7,127.1,353.9,126.8,355.5,126.8L355.5,126.8z M371.3,135.5v-24.4h-2.6v24.4H371.3L371.3,135.5z
				 M393.6,120.3c1.6,0,2.9,0.4,3.8,1.2s1.4,2,1.4,3.5v0.6c-0.8-0.2-1.6-0.4-2.4-0.5s-1.8-0.2-2.9-0.2s-2.1,0.1-3,0.4
				c-0.9,0.2-1.7,0.6-2.3,1.1c-0.7,0.5-1.2,1.1-1.5,1.8c-0.4,0.7-0.5,1.5-0.5,2.4s0.2,1.7,0.6,2.4s0.9,1.2,1.5,1.7s1.3,0.8,2.1,1
				c0.8,0.2,1.6,0.3,2.4,0.3c1.5,0,2.8-0.3,3.8-0.9c1-0.6,1.8-1.3,2.4-2.1v2.6h2.5V125c0-2.3-0.6-4-1.9-5.2
				c-1.3-1.2-3.1-1.8-5.4-1.8c-1.3,0-2.4,0.1-3.4,0.4c-1,0.3-1.9,0.6-2.9,1.1l0.8,2.1c0.8-0.4,1.6-0.7,2.5-0.9
				C391.6,120.4,392.5,120.3,393.6,120.3L393.6,120.3z M393.7,126.8c1.1,0,2,0.1,2.8,0.2c0.8,0.2,1.6,0.3,2.2,0.5v1.7
				c0,0.7-0.1,1.3-0.5,1.9c-0.3,0.6-0.7,1.1-1.2,1.5s-1.1,0.7-1.8,1c-0.7,0.2-1.4,0.4-2.2,0.4c-0.6,0-1.1-0.1-1.6-0.2
				c-0.5-0.2-1-0.4-1.4-0.7s-0.7-0.7-0.9-1.1c-0.2-0.4-0.4-0.9-0.4-1.5c0-1.1,0.4-2,1.3-2.6C390.8,127.1,392.1,126.8,393.7,126.8
				L393.7,126.8z M428.9,128.1c0,0.8-0.1,1.5-0.4,2.2c-0.3,0.7-0.6,1.2-1.1,1.7s-1,0.8-1.6,1.1s-1.3,0.4-2.1,0.4
				c-1.5,0-2.7-0.5-3.5-1.4s-1.2-2.2-1.2-3.8v-10.1h-2.6v10.7c0,1,0.2,2,0.5,2.8s0.7,1.6,1.3,2.2c0.6,0.6,1.3,1.1,2.1,1.4
				c0.8,0.3,1.7,0.5,2.8,0.5c1.5,0,2.7-0.3,3.6-1c0.9-0.7,1.7-1.5,2.3-2.4v3h2.5v-17.3H429L428.9,128.1L428.9,128.1z M439.8,125.6
				c0-0.8,0.1-1.5,0.4-2.2c0.3-0.7,0.6-1.2,1.1-1.7s1-0.8,1.7-1.1c0.6-0.3,1.3-0.4,2.1-0.4c1.5,0,2.7,0.5,3.5,1.4s1.2,2.2,1.2,3.8
				v10.1h2.6v-10.7c0-1-0.2-2-0.5-2.8s-0.7-1.6-1.3-2.2c-0.6-0.6-1.3-1.1-2.1-1.4c-0.8-0.3-1.7-0.5-2.8-0.5c-1.5,0-2.7,0.3-3.6,1
				c-0.9,0.7-1.7,1.5-2.3,2.4v-3h-2.6v17.3h2.6L439.8,125.6L439.8,125.6z"/>
			<path class="st0" d="M482.7,132.6l-1.6-1.5c-0.7,0.7-1.5,1.3-2.3,1.8c-0.9,0.5-1.8,0.7-3,0.7c-0.9,0-1.8-0.2-2.5-0.5
				c-0.8-0.3-1.4-0.8-2-1.4c-0.6-0.6-1-1.3-1.3-2.1s-0.5-1.7-0.5-2.6c0-0.9,0.2-1.8,0.5-2.6s0.7-1.5,1.3-2.1s1.2-1.1,2-1.4
				c0.8-0.3,1.6-0.5,2.4-0.5c1.2,0,2.2,0.3,3,0.8s1.6,1.1,2.3,1.8l1.7-1.8c-0.4-0.4-0.8-0.8-1.3-1.2s-1-0.7-1.5-1
				c-0.6-0.3-1.2-0.5-1.8-0.7c-0.7-0.2-1.4-0.2-2.2-0.2c-1.3,0-2.4,0.2-3.5,0.7s-2,1.1-2.8,2c-0.8,0.8-1.4,1.8-1.9,2.9
				c-0.4,1.1-0.7,2.3-0.7,3.5s0.2,2.4,0.7,3.5c0.4,1.1,1.1,2,1.9,2.9c0.8,0.8,1.7,1.5,2.8,1.9c1.1,0.5,2.3,0.7,3.5,0.7
				c1.6,0,3-0.3,4.1-0.9C480.8,134.3,481.8,133.5,482.7,132.6L482.7,132.6z M489.7,135.5v-24.4h-2.6v24.4H489.7L489.7,135.5z
				 M498.7,114.5v-2.8h-2.9v2.8H498.7L498.7,114.5z M498.5,135.5v-17.3h-2.6v17.3H498.5L498.5,135.5z M529.4,125.7l7.2-7.4h-3.1
				l-9.3,9.7v-16.8h-2.6v24.4h2.6v-4.5l3.5-3.5l6.2,8h3.1L529.4,125.7z M518.7,132.6l-1.6-1.5c-0.7,0.7-1.5,1.3-2.3,1.8
				c-0.9,0.5-1.8,0.7-3,0.7c-0.9,0-1.8-0.2-2.5-0.5c-0.8-0.3-1.4-0.8-2-1.4c-0.6-0.6-1-1.3-1.3-2.1s-0.5-1.7-0.5-2.6
				c0-0.9,0.2-1.8,0.5-2.6s0.7-1.5,1.3-2.1s1.2-1.1,2-1.4c0.8-0.3,1.6-0.5,2.4-0.5c1.2,0,2.2,0.3,3,0.8s1.6,1.1,2.3,1.8l1.7-1.8
				c-0.4-0.4-0.8-0.8-1.3-1.2s-1-0.7-1.5-1c-0.6-0.3-1.2-0.5-1.8-0.7c-0.7-0.2-1.4-0.2-2.2-0.2c-1.3,0-2.4,0.2-3.5,0.7s-2,1.1-2.8,2
				c-0.8,0.8-1.4,1.8-1.9,2.9c-0.4,1.1-0.7,2.3-0.7,3.5s0.2,2.4,0.7,3.5c0.4,1.1,1.1,2,1.9,2.9c0.8,0.8,1.7,1.5,2.8,1.9
				c1.1,0.5,2.3,0.7,3.5,0.7c1.6,0,3-0.3,4.1-0.9C516.9,134.3,517.9,133.5,518.7,132.6L518.7,132.6z"/>
		</g>
	</g>
</g>
</svg>
